<svg xmlns="http://www.w3.org/2000/svg" xmlns:xlink="http://www.w3.org/1999/xlink" viewBox="0,0,256,256" width="24px" height="24px" fill-rule="nonzero"><g fill="#e5e7eb" fill-rule="nonzero" stroke="none" stroke-width="1" stroke-linecap="butt" stroke-linejoin="miter" stroke-miterlimit="10" stroke-dasharray="" stroke-dashoffset="0" font-family="none" font-weight="none" font-size="none" text-anchor="none" style="mix-blend-mode: normal"><g transform="scale(10.66667,10.66667)"><path d="M24,19.5v-7.5c0,-0.828 -0.672,-1.5 -1.5,-1.5h-3c-0.828,0 -1.5,0.672 -1.5,1.5v7.5c0,0.828 0.672,1.5 1.5,1.5h3c0.828,0 1.5,-0.672 1.5,-1.5zM13.5,21c0.828,0 1.5,-0.672 1.5,-1.5v-15c0,-0.828 -0.672,-1.5 -1.5,-1.5h-3c-0.827,0 -1.5,0.672 -1.5,1.5v15c0,0.828 0.673,1.5 1.5,1.5zM0,19.5c0,0.828 0.673,1.5 1.5,1.5h3c0.828,0 1.5,-0.672 1.5,-1.5v-10.5c0,-0.828 -0.672,-1.5 -1.5,-1.5h-3c-0.827,0 -1.5,0.672 -1.5,1.5z"></path></g></g></svg>