<svg xmlns="http://www.w3.org/2000/svg" xmlns:xlink="http://www.w3.org/1999/xlink" viewBox="0,0,256,256" width="24px" height="24px" fill-rule="nonzero"><g fill="#e5e7eb" fill-rule="nonzero" stroke="none" stroke-width="1" stroke-linecap="butt" stroke-linejoin="miter" stroke-miterlimit="10" stroke-dasharray="" stroke-dashoffset="0" font-family="none" font-weight="none" font-size="none" text-anchor="none" style="mix-blend-mode: normal"><g transform="scale(10.66667,10.66667)"><path d="M14.43555,0.00195c-0.3415,-0.00687 -0.68005,0.118 -0.93555,0.375l-10.01758,10.09961c-0.973,0.982 -1.48242,2.33599 -1.48242,3.83399c0,1.498 0.50942,2.89695 1.48242,3.87695l4.3125,4.36133c0.973,0.979 2.31773,1.45117 3.80273,1.45117c1.485,0 2.82969,-0.51214 3.80469,-1.49414l2.58789,-2.63672c0.51,-0.514 0.49194,-1.36539 -0.03906,-1.90039c-0.531,-0.535 -1.37381,-0.55306 -1.88281,-0.03906l-2.67578,2.60742c-0.462,0.467 -1.10355,0.66211 -1.81055,0.66211c-0.707,0 -1.34459,-0.19511 -1.80859,-0.66211l-4.29883,-4.36328c-0.463,-0.467 -0.69531,-1.15028 -0.69531,-1.86328c0,-0.713 0.23231,-1.35722 0.69531,-1.82422l4.28516,-4.37891c0.463,-0.467 1.11627,-0.64453 1.82227,-0.64453c0.706,0 1.34559,0.19316 1.80859,0.66016l2.67578,2.60742c0.51,0.515 1.35377,0.49594 1.88477,-0.03906c0.531,-0.536 0.54906,-1.38639 0.03906,-1.90039l-2.58789,-2.63672c-0.649,-0.646 -1.46962,-1.11608 -2.39062,-1.33008l-0.03516,-0.00586l2.44727,-2.50391c0.512,-0.514 0.49389,-1.36539 -0.03711,-1.90039c-0.2655,-0.2675 -0.60967,-0.40523 -0.95117,-0.41211zM10.67578,13.00977c-0.696,0 -1.25977,0.6037 -1.25977,1.3457c0,0.742 0.56277,1.3457 1.25977,1.3457h10.06445c0.696,0.001 1.25977,-0.6027 1.25977,-1.3457c0,-0.742 -0.56377,-1.3457 -1.25977,-1.3457z"></path></g></g></svg>