<svg xmlns="http://www.w3.org/2000/svg" xmlns:xlink="http://www.w3.org/1999/xlink" viewBox="0,0,256,256" width="30px" height="30px" fill-rule="nonzero"><g fill="#e5e7eb" fill-rule="nonzero" stroke="none" stroke-width="1" stroke-linecap="butt" stroke-linejoin="miter" stroke-miterlimit="10" stroke-dasharray="" stroke-dashoffset="0" font-family="none" font-weight="none" font-size="none" text-anchor="none" style="mix-blend-mode: normal"><g transform="scale(8.53333,8.53333)"><path d="M15,2c-6.075,0 -11,4.925 -11,11c0,7.234 7.152,10.697 8.048,11.503c0.915,0.823 1.671,2.668 1.976,3.714c0.148,0.508 0.564,0.765 0.976,0.776c0.413,-0.012 0.828,-0.269 0.976,-0.776c0.305,-1.046 1.061,-2.89 1.976,-3.714c0.896,-0.806 8.048,-4.269 8.048,-11.503c0,-6.075 -4.925,-11 -11,-11zM15,16c-1.657,0 -3,-1.343 -3,-3c0,-1.657 1.343,-3 3,-3c1.657,0 3,1.343 3,3c0,1.657 -1.343,3 -3,3z"></path></g></g></svg>